<svg aria-hidden="true" style="position: absolute; width: 0; height: 0; overflow: hidden;" version="1.1" xmlns="http://www.w3.org/2000/svg" xmlns:xlink="http://www.w3.org/1999/xlink">
	<defs>
  <symbol id="icon-active-star" viewBox="0 0 32 32">
    <path fill="#ff8c00" style="fill: var(--color1, #ff8c00)" d="M15.421 5.042c0.049-0.101 0.126-0.187 0.221-0.247s0.206-0.092 0.319-0.092c0.113 0 0.223 0.032 0.319 0.092s0.172 0.145 0.221 0.247l3.302 6.6c0.045 0.085 0.109 0.158 0.188 0.213s0.169 0.090 0.265 0.103l7.372 1.062c0.113 0.015 0.219 0.061 0.307 0.134s0.153 0.169 0.187 0.278 0.038 0.225 0.009 0.335c-0.029 0.11-0.088 0.21-0.172 0.288l-5.322 5.11c-0.072 0.068-0.125 0.154-0.156 0.248s-0.038 0.195-0.020 0.292l1.258 7.228c0.021 0.111 0.010 0.226-0.031 0.332s-0.112 0.197-0.204 0.264c-0.092 0.067-0.2 0.107-0.313 0.114s-0.226-0.016-0.326-0.070l-6.606-3.414c-0.086-0.045-0.181-0.068-0.278-0.068s-0.192 0.023-0.278 0.068l-6.6 3.426c-0.1 0.054-0.213 0.078-0.326 0.070s-0.222-0.048-0.313-0.115-0.162-0.158-0.204-0.264c-0.042-0.105-0.052-0.22-0.031-0.332l1.246-7.232c0.018-0.098 0.011-0.198-0.020-0.292s-0.084-0.179-0.156-0.248l-5.32-5.11c-0.083-0.078-0.143-0.177-0.172-0.288s-0.026-0.226 0.009-0.335c0.035-0.108 0.1-0.205 0.187-0.278s0.194-0.119 0.307-0.134l7.364-1.070c0.097-0.014 0.189-0.051 0.268-0.108s0.143-0.133 0.186-0.22l3.312-6.588z"></path>
    <path fill="#ff8c00" style="fill: var(--color1, #ff8c00)" d="M14.34 4.502c0.151-0.301 0.382-0.553 0.669-0.73s0.616-0.27 0.952-0.27c0.336 0 0.666 0.093 0.952 0.27s0.518 0.429 0.669 0.73l3.162 6.314 7.060 1.018c0.336 0.048 0.652 0.19 0.911 0.409s0.452 0.507 0.557 0.83 0.116 0.669 0.033 0.999c-0.083 0.329-0.256 0.629-0.501 0.864l-5.090 4.888 1.2 6.91c0.058 0.333 0.021 0.675-0.105 0.988s-0.338 0.585-0.61 0.784c-0.272 0.2-0.595 0.319-0.932 0.345s-0.674-0.043-0.974-0.198l-6.33-3.282-6.33 3.282c-0.3 0.155-0.637 0.224-0.974 0.198s-0.66-0.146-0.932-0.345c-0.273-0.199-0.484-0.471-0.61-0.784s-0.163-0.656-0.105-0.988l1.2-6.91-5.088-4.89c-0.245-0.236-0.418-0.535-0.501-0.864s-0.071-0.675 0.033-0.999c0.104-0.323 0.297-0.611 0.557-0.83s0.575-0.361 0.912-0.409l7.060-1.018 3.158-6.312zM15.962 6.664l-2.762 5.516c-0.131 0.261-0.323 0.487-0.561 0.658s-0.512 0.282-0.801 0.324l-6.146 0.886 4.428 4.252c0.214 0.206 0.374 0.461 0.467 0.743s0.114 0.583 0.063 0.875l-1.048 6.032 5.524-2.868c0.258-0.134 0.544-0.204 0.835-0.204s0.577 0.070 0.835 0.204l5.526 2.868-1.048-6.026c-0.051-0.292-0.029-0.593 0.063-0.875s0.253-0.537 0.467-0.743l4.428-4.252-6.146-0.892c-0.289-0.042-0.564-0.153-0.801-0.324s-0.429-0.397-0.561-0.658l-2.762-5.516z"></path>
    </symbol>
    <symbol id="icon-Blue-zone" viewBox="0 0 32 32">
    <path fill="#0052ff" style="fill: var(--color2, #0052ff)" opacity="0.06" d="M31.982 16c0 8.813-7.145 15.958-15.958 15.958s-15.958-7.145-15.958-15.958c0-8.813 7.145-15.958 15.958-15.958s15.958 7.145 15.958 15.958z"></path>
    <path fill="#0052ff" style="fill: var(--color2, #0052ff)" opacity="0.06" d="M20.431 16c0 2.434-1.973 4.407-4.407 4.407s-4.407-1.973-4.407-4.407c0-2.434 1.973-4.407 4.407-4.407s4.407 1.973 4.407 4.407z"></path>
    <path fill="none" stroke="#fff" style="stroke: var(--color3, #fff)" stroke-linejoin="miter" stroke-linecap="butt" stroke-miterlimit="4" stroke-width="0.3678" d="M17.005 16c0 0.542-0.439 0.981-0.981 0.981s-0.981-0.439-0.981-0.981c0-0.542 0.439-0.981 0.981-0.981s0.981 0.439 0.981 0.981z"></path>
    <path fill="#3785fe" style="fill: var(--color4, #3785fe)" d="M16.783 16c0 0.42-0.34 0.76-0.76 0.76s-0.76-0.34-0.76-0.76c0-0.42 0.34-0.76 0.76-0.76s0.76 0.34 0.76 0.76z"></path>
    </symbol>
    <symbol id="icon-chevron-right" viewBox="0 0 32 32">
    <path fill="none" stroke="#008bdc" style="stroke: var(--color5, #008bdc)" stroke-linejoin="round" stroke-linecap="round" stroke-miterlimit="4" stroke-width="2" d="M12 24l8-8-8-8"></path>
    </symbol>
    <symbol id="icon-Disabled-star" viewBox="0 0 32 32">
      <path fill="#eee" style="fill: var(--color6, #eee)" d="M15.421 5.042c0.049-0.101 0.126-0.187 0.221-0.247s0.206-0.092 0.319-0.092c0.113 0 0.223 0.032 0.319 0.092s0.172 0.145 0.221 0.247l3.302 6.6c0.045 0.085 0.109 0.158 0.188 0.213s0.169 0.090 0.265 0.103l7.372 1.062c0.113 0.015 0.219 0.061 0.307 0.134s0.153 0.169 0.187 0.278 0.038 0.225 0.009 0.335c-0.029 0.11-0.088 0.21-0.172 0.288l-5.322 5.11c-0.072 0.068-0.125 0.154-0.156 0.248s-0.038 0.195-0.020 0.292l1.258 7.228c0.021 0.111 0.010 0.227-0.031 0.332s-0.112 0.197-0.204 0.264c-0.092 0.067-0.2 0.107-0.313 0.114s-0.226-0.017-0.326-0.070l-6.606-3.414c-0.086-0.045-0.181-0.068-0.278-0.068s-0.192 0.023-0.278 0.068l-6.6 3.426c-0.1 0.054-0.213 0.078-0.326 0.070s-0.222-0.048-0.313-0.114c-0.091-0.067-0.162-0.159-0.204-0.264s-0.052-0.221-0.031-0.332l1.246-7.232c0.018-0.098 0.011-0.198-0.020-0.292s-0.084-0.179-0.156-0.248l-5.32-5.11c-0.083-0.078-0.143-0.177-0.172-0.288s-0.026-0.226 0.009-0.335c0.035-0.108 0.1-0.205 0.187-0.278s0.194-0.119 0.307-0.134l7.364-1.070c0.097-0.014 0.189-0.051 0.268-0.108s0.143-0.133 0.186-0.22l3.312-6.588z"></path>
      <path fill="#eee" style="fill: var(--color6, #eee)" d="M14.34 4.502c0.151-0.301 0.382-0.553 0.669-0.73s0.616-0.27 0.952-0.27c0.336 0 0.666 0.094 0.952 0.27s0.518 0.429 0.669 0.73l3.162 6.314 7.060 1.018c0.336 0.048 0.652 0.19 0.911 0.409s0.452 0.507 0.557 0.83 0.116 0.669 0.033 0.999c-0.083 0.329-0.256 0.629-0.501 0.864l-5.090 4.888 1.2 6.91c0.058 0.333 0.021 0.675-0.105 0.988s-0.338 0.585-0.61 0.785c-0.272 0.2-0.595 0.319-0.932 0.345s-0.674-0.043-0.974-0.198l-6.33-3.282-6.33 3.282c-0.3 0.155-0.637 0.224-0.974 0.198s-0.66-0.145-0.932-0.345c-0.273-0.2-0.484-0.471-0.61-0.785s-0.163-0.656-0.105-0.988l1.2-6.91-5.088-4.89c-0.245-0.236-0.418-0.535-0.501-0.864s-0.071-0.675 0.033-0.999c0.104-0.323 0.297-0.611 0.557-0.83s0.575-0.361 0.912-0.409l7.060-1.018 3.158-6.312zM15.962 6.664l-2.762 5.516c-0.131 0.261-0.323 0.487-0.561 0.658s-0.512 0.282-0.801 0.324l-6.146 0.886 4.428 4.252c0.214 0.206 0.374 0.461 0.467 0.743s0.114 0.583 0.063 0.875l-1.048 6.032 5.524-2.868c0.258-0.134 0.544-0.204 0.835-0.204s0.577 0.070 0.835 0.204l5.526 2.868-1.048-6.026c-0.051-0.292-0.029-0.593 0.063-0.875s0.253-0.537 0.467-0.743l4.428-4.252-6.146-0.892c-0.289-0.042-0.564-0.153-0.801-0.324s-0.429-0.397-0.561-0.658l-2.762-5.516z"></path>
      <path fill="#eee" style="fill: var(--color6, #eee)" d="M8.794 28.86c-0.267 0-0.531-0.059-0.773-0.172s-0.456-0.278-0.627-0.484c-0.172-0.2-0.297-0.436-0.366-0.691s-0.081-0.521-0.034-0.781l1.2-6.91-5.072-4.888c-0.246-0.235-0.421-0.535-0.504-0.865s-0.073-0.677 0.032-1.001c0.104-0.324 0.298-0.612 0.558-0.831s0.577-0.36 0.914-0.408l7.060-1.016 3.156-6.314c0.15-0.302 0.382-0.556 0.669-0.733s0.618-0.269 0.955-0.267h0.020v21.882l-0.020-0.012-6.332 3.282c-0.258 0.136-0.545 0.207-0.836 0.208z"></path>
      </symbol>
      <symbol id="icon-duration" viewBox="0 0 32 32">
        <path fill="#f9f7f7" style="fill: var(--color7, #f9f7f7)" d="M22.452 24.581v-1.959c0-1.586-0.832-3.056-2.193-3.873l-4.582-2.749-3.161 1.897-1.815 4.725v2.985l11.751-1.026z"></path>
        <path fill="#f9f7f7" style="fill: var(--color7, #f9f7f7)" d="M12.515 24.581v-6.684l-1.42 0.852c-1.36 0.816-2.193 2.286-2.193 3.873v1.959h3.613z"></path>
        <path fill="#f9f7f7" style="fill: var(--color7, #f9f7f7)" d="M10.41 2.903v6.475c0 1.586 0.832 3.056 2.193 3.873h6.011l3.047-1.316c0.51-0.741 0.793-1.628 0.793-2.557v-4.669l-12.042-1.806z"></path>
        <path fill="#f9f7f7" style="fill: var(--color7, #f9f7f7)" d="M8.902 2.903v6.475c0 0.928 0.285 1.816 0.793 2.557l2.819 0.92v-6.791c0-0.748 0.607-1.355 1.355-1.355h8.581v-1.806h-13.548z"></path>
        <path fill="#d9d7d7" style="fill: var(--color8, #d9d7d7)" d="M16.693 22.278c-0.343-0.137-0.565-0.468-0.565-0.838v-5.2c0-0.317 0.166-0.611 0.439-0.774l3.691-2.215c0.563-0.338 1.039-0.792 1.4-1.316h-9.143l-0.585 0.719 0.585 1.448 2.271 1.363c0.272 0.163 0.439 0.457 0.439 0.774v5.2c0 0.369-0.225 0.701-0.568 0.839l-2.142 0.857-0.94 4.695 10.876-0.54v-2.71c0 0-4.121-1.648-5.757-2.303z"></path>
        <path fill="#d9d7d7" style="fill: var(--color8, #d9d7d7)" d="M12.515 25.935v-2.8l-3.613 1.445v4.065h13.548v-1.355h-8.581c-0.748 0-1.355-0.607-1.355-1.355z"></path>
        <path fill="#d9d7d7" style="fill: var(--color8, #d9d7d7)" d="M22.905 28.193h-11.742c-0.249 0-0.452 0.202-0.452 0.452v0.452c0 0.249 0.202 0.452 0.452 0.452h11.742c0.249 0 0.452-0.202 0.452-0.452v-0.452c0-0.249-0.202-0.452-0.452-0.452z"></path>
        <path fill="#d9d7d7" style="fill: var(--color8, #d9d7d7)" d="M12.064 29.097c-0.499 0-0.903-0.404-0.903-0.903h-2.71c-0.249 0-0.452 0.202-0.452 0.452v0.903c0 0.249 0.202 0.452 0.452 0.452h14.452c0.249 0 0.452-0.202 0.452-0.452v-0.452h-11.29z"></path>
        <path fill="#d9d7d7" style="fill: var(--color8, #d9d7d7)" d="M11.096 13.251l1.42 0.852v-2.168h-2.819c0.361 0.524 0.836 0.978 1.399 1.316z"></path>
        <path fill="#d9d7d7" style="fill: var(--color8, #d9d7d7)" d="M22.905 2h-11.742c-0.249 0-0.452 0.202-0.452 0.452v0.452c0 0.249 0.202 0.452 0.452 0.452h11.742c0.249 0 0.452-0.202 0.452-0.452v-0.452c0-0.249-0.202-0.452-0.452-0.452z"></path>
        <path fill="#d9d7d7" style="fill: var(--color8, #d9d7d7)" d="M12.064 2.903c-0.499 0-0.903-0.404-0.903-0.903h-2.71c-0.249 0-0.452 0.202-0.452 0.452v0.903c0 0.249 0.202 0.452 0.452 0.452h14.452c0.249 0 0.452-0.202 0.452-0.452v-0.452h-11.29z"></path>
        </symbol>
    <symbol id="icon-Minus" viewBox="0 0 32 32">
      <path fill="none" stroke="#008bdc" style="stroke: var(--color5, #008bdc)" stroke-linejoin="round" stroke-linecap="round" stroke-miterlimit="4" stroke-width="2" d="M8 16h16"></path>
    </symbol>
    <symbol id="icon-posted-on" viewBox="0 0 32 32">
      <path fill="#d9d7d7" style="fill: var(--color8, #d9d7d7); stroke: var(--color8, #d9d7d7)" stroke="#d9d7d7" stroke-linejoin="miter" stroke-linecap="butt" stroke-miterlimit="4" stroke-width="0.5" d="M30.25 16c0-0.591-0.479-1.070-1.070-1.070s-1.070 0.479-1.070 1.070c0 6.677-5.432 12.109-12.109 12.109s-12.109-5.432-12.109-12.109c0-6.677 5.432-12.109 12.109-12.109 1.923 0 3.796 0.451 5.487 1.312l4.306-3.371c-0.4-0.166-0.86-0.074-1.166 0.232l-1.56 1.56c-2.146-1.228-4.571-1.874-7.066-1.874-3.806 0-7.385 1.483-10.076 4.174h-0c-2.691 2.691-4.174 6.27-4.174 10.076s1.483 7.385 4.174 10.076c2.691 2.691 6.27 4.174 10.076 4.174s7.385-1.483 10.076-4.174c2.691-2.691 4.174-6.27 4.174-10.076zM30.25 16v0z"></path>
      <path fill="#d9d7d7" style="fill: var(--color8, #d9d7d7); stroke: var(--color8, #d9d7d7)" stroke="#d9d7d7" stroke-linejoin="miter" stroke-linecap="butt" stroke-miterlimit="4" stroke-width="0.5" d="M20.233 16.483h-4.202v-4.202c0-0.591-0.479-1.070-1.070-1.070s-1.070 0.479-1.070 1.070v5.272c0 0.591 0.479 1.070 1.070 1.070h5.272c0.591 0 1.070-0.479 1.070-1.070s-0.479-1.070-1.070-1.070z"></path>
      </symbol>
    <symbol id="icon-Red-pin" viewBox="0 0 24 32">
      <path fill="#ec4242" style="fill: var(--color9, #ec4242)" d="M14.47 23.223c5.227-1.168 8.981-5.829 8.981-11.225 0-3.072-1.197-5.962-3.369-8.134s-5.062-3.369-8.134-3.369-5.962 1.197-8.134 3.369v0c-2.173 2.173-3.369 5.062-3.369 8.134 0 5.395 3.754 10.057 8.981 11.225l2.522 8.13 2.522-8.13zM11.948 3.722c4.535 0 8.226 3.69 8.226 8.226s-3.69 8.225-8.226 8.225-8.226-3.69-8.226-8.225c0-4.535 3.69-8.226 8.226-8.226z"></path>
    </symbol>
    <symbol id="icon-relocate" viewBox="0 0 32 32">
      <path fill="#008bdc" style="fill: var(--color5, #008bdc)" d="M30.55 14.654h-4.172c-0.569-4.83-4.411-8.672-9.241-9.241v-4.172c0-0.686-0.556-1.242-1.242-1.242s-1.242 0.556-1.242 1.242v4.172c-4.83 0.569-8.672 4.411-9.241 9.241h-4.172c-0.686 0-1.242 0.556-1.242 1.242s0.556 1.242 1.242 1.242h4.172c0.569 4.83 4.411 8.672 9.241 9.241v4.172c0 0.686 0.556 1.242 1.242 1.242s1.242-0.556 1.242-1.242v-4.172c4.83-0.569 8.672-4.411 9.241-9.241h4.172c0.686 0 1.242-0.556 1.242-1.242s-0.556-1.242-1.242-1.242zM15.896 23.968c-4.451 0-8.072-3.621-8.072-8.072s3.621-8.072 8.072-8.072c4.451 0 8.072 3.621 8.072 8.072s-3.621 8.072-8.072 8.072z"></path>
      <path fill="#008bdc" style="fill: var(--color5, #008bdc)" d="M19.871 15.896c0 2.195-1.779 3.974-3.974 3.974s-3.974-1.779-3.974-3.974c0-2.195 1.779-3.974 3.974-3.974s3.974 1.779 3.974 3.974z"></path>
    </symbol>
    <symbol id="icon-salary" viewBox="0 0 32 32">
      <path fill="#d9d7d7" style="fill: var(--color8, #d9d7d7); stroke: var(--color8, #d9d7d7)" stroke="#d9d7d7" stroke-linejoin="miter" stroke-linecap="butt" stroke-miterlimit="4" stroke-width="0.5" d="M30.582 20.593c0-4.383-2.935-8.092-6.941-9.268h0.992c1.542 0 2.795-1.254 2.795-2.795s-1.254-2.795-2.795-2.795h-4c0.17-0.361 0.266-0.764 0.266-1.189 0-1.542-1.254-2.795-2.795-2.795h-13.557c-1.542 0-2.795 1.254-2.795 2.795s1.254 2.795 2.795 2.795h4c-0.17 0.361-0.266 0.764-0.266 1.189s0.095 0.828 0.266 1.189h-1.012c-1.542 0-2.795 1.254-2.795 2.795 0 0.78 0.321 1.485 0.837 1.992-0.516 0.507-0.837 1.212-0.837 1.992s0.321 1.485 0.837 1.992c-0.516 0.507-0.837 1.212-0.837 1.992s0.321 1.485 0.837 1.992c-0.516 0.507-0.837 1.212-0.837 1.992 0 1.542 1.254 2.795 2.795 2.795h6.414c1.759 1.84 4.236 2.988 6.978 2.988 5.325 0 9.657-4.332 9.657-9.657zM24.632 7.341c0.655 0 1.189 0.534 1.189 1.189s-0.533 1.189-1.189 1.189h-13.557c-0.655 0-1.189-0.534-1.189-1.189s0.533-1.189 1.189-1.189h13.557zM4.545 5.734c-0.655 0-1.189-0.534-1.189-1.189s0.533-1.189 1.189-1.189h13.557c0.655 0 1.189 0.534 1.189 1.189s-0.533 1.189-1.189 1.189h-13.557zM7.534 11.325h10.674c-1.542 0.453-2.925 1.281-4.042 2.377h-6.632c-0.655 0-1.189-0.534-1.189-1.189s0.534-1.189 1.189-1.189zM7.534 15.309h5.312c-0.479 0.73-0.862 1.528-1.13 2.377h-4.182c-0.655 0-1.189-0.533-1.189-1.189s0.533-1.189 1.189-1.189zM7.534 19.293h3.822c-0.058 0.425-0.088 0.859-0.088 1.3 0 0.364 0.021 0.724 0.060 1.078h-3.795c-0.655 0-1.189-0.534-1.189-1.189s0.533-1.189 1.189-1.189zM7.534 25.655c-0.655 0-1.189-0.533-1.189-1.189s0.533-1.189 1.189-1.189h4.115c0.245 0.846 0.603 1.644 1.056 2.377h-5.171zM20.925 28.643c-4.439 0-8.050-3.612-8.050-8.050s3.612-8.050 8.050-8.050c4.439 0 8.050 3.612 8.050 8.050s-3.612 8.050-8.050 8.050z"></path>
    </symbol>
    <symbol id="icon-Save" viewBox="0 0 32 32">
      <path fill="#fff" style="fill: var(--color3, #fff); stroke: var(--color5, #008bdc)" stroke="#008bdc" stroke-linejoin="miter" stroke-linecap="butt" stroke-miterlimit="4" stroke-width="2" d="M6.333 2.667c0-0.184 0.149-0.333 0.333-0.333h18.667c0.184 0 0.333 0.149 0.333 0.333v25.465c0 0.268-0.301 0.427-0.522 0.275l-7.823-5.378c-0.796-0.547-1.847-0.547-2.644 0v0l-7.823 5.378c-0.221 0.152-0.522-0.006-0.522-0.275v-25.465z"></path>
    </symbol>
    <symbol id="icon-Search" viewBox="0 0 32 32">
      <path fill="none" stroke="#fff" style="stroke: var(--color3, #fff)" stroke-linejoin="round" stroke-linecap="round" stroke-miterlimit="4" stroke-width="2.6667" d="M14.667 24c5.155 0 9.333-4.179 9.333-9.333s-4.179-9.333-9.333-9.333c-5.155 0-9.333 4.179-9.333 9.333s4.179 9.333 9.333 9.333z"></path>
      <path fill="none" stroke="#fff" style="stroke: var(--color3, #fff)" stroke-linejoin="round" stroke-linecap="round" stroke-miterlimit="4" stroke-width="2.6667" d="M26.667 26.667l-5.333-5.333"></path>
    </symbol>
    <symbol id="icon-Share" viewBox="0 0 32 32">
      <path fill="#008bdc" style="fill: var(--color5, #008bdc)" d="M24 21.44c-1.013 0-1.92 0.4-2.613 1.027l-9.507-5.533c0.067-0.307 0.12-0.613 0.12-0.933s-0.053-0.627-0.12-0.933l9.4-5.48c0.72 0.667 1.667 1.080 2.72 1.080 2.213 0 4-1.787 4-4s-1.787-4-4-4c-2.213 0-4 1.787-4 4 0 0.32 0.053 0.627 0.12 0.933l-9.4 5.48c-0.72-0.667-1.667-1.080-2.72-1.080-2.213 0-4 1.787-4 4s1.787 4 4 4c1.053 0 2-0.413 2.72-1.080l9.493 5.547c-0.067 0.28-0.107 0.573-0.107 0.867 0 2.147 1.747 3.893 3.893 3.893s3.893-1.747 3.893-3.893c0-2.147-1.747-3.893-3.893-3.893z"></path>
    </symbol>
    <symbol id="icon-X" viewBox="0 0 32 32">
      <path stroke-linejoin="round" stroke-linecap="round" stroke-miterlimit="4" stroke-width="2" d="M22.667 9.333l-13.333 13.333"></path>
      <path stroke-linejoin="round" stroke-linecap="round" stroke-miterlimit="4" stroke-width="2" d="M9.333 9.333l13.333 13.333"></path>
    </symbol>
    <symbol id="icon-X-black" viewBox="0 0 32 32">
      <path d="M0 0h32v32h-32v-32z"></path>
    </symbol>
    <symbol id="icon-filter" viewBox="0 0 33 32">
      <path fill="none" stroke="#008bdc" style="stroke: var(--color1, #008bdc)" stroke-linejoin="round" stroke-linecap="round" stroke-miterlimit="4" stroke-width="2" d="M28.667 6h-24l10 12v8l4 2v-10l10-12z"></path>
    </symbol>
    <symbol id="icon-location" viewBox="0 0 32 32">
      <path fill="#dadada" style="fill: var(--color1, #dadada)" d="M15.333 2c-2.475 0-4.849 0.94-6.6 2.614s-2.734 3.944-2.734 6.311c-0.054 8.515 9.333 19.075 9.333 19.075s9.387-10.56 9.333-19.075c0-2.367-0.983-4.637-2.734-6.311s-4.124-2.614-6.599-2.614zM15.333 14.711c-0.783 0-1.548-0.222-2.199-0.638s-1.158-1.007-1.458-1.699c-0.3-0.692-0.378-1.453-0.225-2.187s0.53-1.409 1.083-1.938c0.554-0.529 1.259-0.89 2.027-1.036s1.564-0.071 2.287 0.215c0.723 0.287 1.342 0.772 1.777 1.394s0.667 1.354 0.667 2.103c0 1.004-0.417 1.967-1.16 2.677s-1.749 1.109-2.799 1.109z"></path>
    </symbol>
    <symbol id="icon-arrow-left2" viewBox="0 0 32 32">
      <path d="M12.586 27.414l-10-10c-0.781-0.781-0.781-2.047 0-2.828l10-10c0.781-0.781 2.047-0.781 2.828 0s0.781 2.047 0 2.828l-6.586 6.586h19.172c1.105 0 2 0.895 2 2s-0.895 2-2 2h-19.172l6.586 6.586c0.39 0.39 0.586 0.902 0.586 1.414s-0.195 1.024-0.586 1.414c-0.781 0.781-2.047 0.781-2.828 0z"></path>
    </symbol>
  </defs>
</svg>